<mxfile host="app.diagrams.net" modified="2023-11-19T21:18:47.065Z" agent="Mozilla/5.0 (Windows NT 10.0; Win64; x64) AppleWebKit/537.36 (KHTML, like Gecko) Chrome/116.0.0.0 Safari/537.36 OPR/102.0.0.0" version="22.1.3" etag="WGDD9oVIH1poyfkcd15x" type="github">
  <diagram name="Page-1" id="Yc0Z99AnwtRlDk--XxVy">
    <mxGraphModel>
      <root>
        <mxCell id="0" />
        <mxCell id="1" parent="0" />
      </root>
    </mxGraphModel>
  </diagram>
</mxfile>
